<?xml version="1.0" encoding="UTF-8" standalone="no"?>
<!-- Created with Inkscape (http://www.inkscape.org/) -->

<svg
   width="480"
   height="480"
   viewBox="0 0 127 127"
   version="1.1"
   id="svg5"
   inkscape:version="1.2.2 (b0a8486541, 2022-12-01)"
   sodipodi:docname="potatoro_icon.svg"
   xmlns:inkscape="http://www.inkscape.org/namespaces/inkscape"
   xmlns:sodipodi="http://sodipodi.sourceforge.net/DTD/sodipodi-0.dtd"
   xmlns="http://www.w3.org/2000/svg"
   xmlns:svg="http://www.w3.org/2000/svg">
  <sodipodi:namedview
     id="namedview7"
     pagecolor="#8d8d8d"
     bordercolor="#000000"
     borderopacity="0.25"
     inkscape:showpageshadow="2"
     inkscape:pageopacity="0"
     inkscape:pagecheckerboard="0"
     inkscape:deskcolor="#d1d1d1"
     inkscape:document-units="px"
     showgrid="false"
     inkscape:zoom="1.4142136"
     inkscape:cx="270.11479"
     inkscape:cy="256.67976"
     inkscape:window-width="1920"
     inkscape:window-height="1048"
     inkscape:window-x="0"
     inkscape:window-y="0"
     inkscape:window-maximized="1"
     inkscape:current-layer="layer1"
     showguides="false" />
  <defs
     id="defs2" />
  <g
     inkscape:label="Layer 1"
     inkscape:groupmode="layer"
     id="layer1">
    <path
       style="fill:#ffffff;fill-opacity:1;stroke:#ffffff;stroke-width:3.21656;stroke-miterlimit:100;stroke-dasharray:none;stroke-dashoffset:0;stroke-opacity:1"
       d="m 61.18613,118.85938 c 0,0 -41.694809,-7.22624 -35.110173,-57.559151 C 32.660594,10.967328 42.813736,7.5578814 55.24182,7.4427294 67.669906,7.3275764 80.260728,15.800803 86.052554,27.596076 c 5.791816,11.795275 6.882617,14.204015 11.603421,30.067503 1.152821,3.87385 7.213295,30.96483 1.562312,42.984791 -5.650976,12.01999 -19.368609,21.64841 -38.032157,18.21101 z"
       id="path3033"
       sodipodi:nodetypes="csssssc" />
    <circle
       style="fill:#000000;fill-opacity:1;stroke:#000000;stroke-width:0.670935;stroke-miterlimit:100;stroke-dasharray:none;stroke-dashoffset:0;stroke-opacity:1"
       id="path6868"
       cy="-5.9030247"
       cx="-9.7520285"
       r="3.6332824" />
    <circle
       style="fill:none;fill-opacity:1;stroke:#ffffff;stroke-width:0.258758;stroke-miterlimit:100;stroke-dasharray:none;stroke-dashoffset:0;stroke-opacity:1"
       id="path8163"
       cx="-9.7520285"
       cy="-5.9030247"
       r="3.0456207" />
    <circle
       style="fill:none;fill-opacity:1;stroke:#ffffff;stroke-width:0.215635;stroke-miterlimit:100;stroke-dasharray:0.215635, 0.862542;stroke-dashoffset:0;stroke-opacity:1"
       id="path8163-6"
       cx="-9.7520285"
       cy="-5.9030242"
       r="2.5380175" />
    <ellipse
       style="fill:#000000;fill-opacity:1;stroke:#000000;stroke-width:2.68421;stroke-miterlimit:100;stroke-dasharray:none;stroke-dashoffset:0;stroke-opacity:1"
       id="path6868-7"
       cy="57.106628"
       cx="43.949165"
       rx="14.536659"
       ry="14.534712" />
    <ellipse
       style="fill:none;fill-opacity:1;stroke:#ffffff;stroke-width:1.03521;stroke-miterlimit:100;stroke-dasharray:none;stroke-dashoffset:0;stroke-opacity:1"
       id="path8163-5"
       cx="43.949165"
       cy="57.106628"
       rx="12.18544"
       ry="12.183808" />
    <ellipse
       style="fill:none;fill-opacity:1;stroke:#ffffff;stroke-width:0.862693;stroke-miterlimit:100;stroke-dasharray:0.862693, 3.45076;stroke-dashoffset:0;stroke-opacity:1"
       id="path8163-6-3"
       cx="43.949165"
       cy="57.106628"
       rx="10.154535"
       ry="10.153175" />
    <ellipse
       style="fill:#000000;fill-opacity:1;stroke:#000000;stroke-width:2.68421;stroke-miterlimit:100;stroke-dasharray:none;stroke-dashoffset:0;stroke-opacity:1"
       id="path6868-5"
       cy="62.751015"
       cx="79.928986"
       rx="14.536659"
       ry="14.534712" />
    <ellipse
       style="fill:none;fill-opacity:1;stroke:#ffffff;stroke-width:1.03521;stroke-miterlimit:100;stroke-dasharray:none;stroke-dashoffset:0;stroke-opacity:1"
       id="path8163-62"
       cx="79.928986"
       cy="62.751015"
       rx="12.18544"
       ry="12.183808" />
    <ellipse
       style="fill:none;fill-opacity:1;stroke:#ffffff;stroke-width:0.862693;stroke-miterlimit:100;stroke-dasharray:0.862693, 3.45076;stroke-dashoffset:0;stroke-opacity:1"
       id="path8163-6-9"
       cx="79.928986"
       cy="62.751015"
       rx="10.154535"
       ry="10.153175" />
    <path
       style="fill:#000000;fill-opacity:1;stroke:#000000;stroke-width:0.215635;stroke-miterlimit:100;stroke-dasharray:none;stroke-dashoffset:0;stroke-opacity:1"
       d="m -15.892262,5.5786003 c -1.57935,-1.06039 -2.972765,-3.038175 -2.862227,-4.93726798 0.03007,-0.51655197 0.438545,-1.07887997 0.929072,-1.24354097 2.162665,-0.72596695 4.314041,2.20752595 6.574563,1.90063695 2.861835,-0.38852398 4.100899,-1.31415695 5.544469,-0.158911 0.820743,0.656816 1.071822,2.154688 0.602807,3.09546 -0.749337,1.503055 -2.870648,1.942874 -4.5291678,2.207436 -2.0799822,0.331793 -4.5108222,0.310275 -6.2595162,-0.863813 z"
       id="path10444"
       sodipodi:nodetypes="aaasaaaa" />
    <path
       style="fill:none;fill-opacity:1;stroke:#ffffff;stroke-width:0.186392;stroke-miterlimit:100;stroke-dasharray:none;stroke-dashoffset:0;stroke-opacity:1"
       d="m -15.512511,5.1163928 c -1.432289,-0.8736399 -2.695956,-2.5031081 -2.59571,-4.0677431 0.02727,-0.42557968 0.397709,-0.88887358 0.842561,-1.02453538 1.961288,-0.59811359 3.912338,1.81874858 5.962371,1.56590718 2.595355,-0.3200992 3.719044,-1.08271478 5.028195,-0.1309245 0.74432,0.5411412 0.972019,1.7752161 0.546677,2.5503044 -0.679563,1.2383451 -2.603348,1.6007055 -4.1074344,1.8186743 -1.8863036,0.2733594 -4.0907956,0.2556311 -5.6766596,-0.7116829 z"
       id="path10444-0"
       sodipodi:nodetypes="aaasaaaa" />
    <path
       style="fill:none;fill-opacity:1;stroke:#ffffff;stroke-width:0.162719;stroke-miterlimit:100;stroke-dasharray:0.162719, 0.650875;stroke-dashoffset:0;stroke-opacity:1"
       d="m -15.208806,4.8803282 c -1.314693,-0.724309 -2.47461,-2.0752528 -2.382595,-3.3724453 0.02503,-0.3528355 0.365057,-0.73693878 0.773385,-0.84941198 1.80026,-0.49587821 3.591124,1.50787058 5.472843,1.29824728 2.3822685,-0.2653848 3.413699,-0.8976467 4.615366,-0.1085456 0.683209,0.4486442 0.892213,1.471779 0.501791,2.1143818 -0.623768,1.0266752 -2.389604,1.3270976 -3.7702003,1.5078091 -1.7314327,0.226634 -3.7549297,0.2119361 -5.2105897,-0.5900353 z"
       id="path10444-0-9"
       sodipodi:nodetypes="aaasaaaa" />
    <path
       style="fill:none;fill-opacity:1;stroke:#ffffff;stroke-width:0.650989;stroke-miterlimit:100;stroke-dasharray:none;stroke-dashoffset:0;stroke-opacity:1"
       d="m 43.924454,57.634069 6.772077,-6.35487"
       id="path11080"
       sodipodi:nodetypes="cc" />
    <path
       style="fill:none;fill-opacity:1;stroke:#ffffff;stroke-width:0.650989;stroke-miterlimit:100;stroke-dasharray:none;stroke-dashoffset:0;stroke-opacity:1"
       d="m 44.250085,57.565969 -4.806829,-1.95618"
       id="path11082"
       sodipodi:nodetypes="cc" />
    <path
       style="fill:none;fill-opacity:1;stroke:#ffffff;stroke-width:0.650989;stroke-miterlimit:100;stroke-dasharray:none;stroke-dashoffset:0;stroke-opacity:1"
       d="m 80.101628,63.024189 -1.630031,8.39248"
       id="path11080-6"
       sodipodi:nodetypes="cc" />
    <path
       style="fill:none;fill-opacity:1;stroke:#ffffff;stroke-width:0.650989;stroke-miterlimit:100;stroke-dasharray:none;stroke-dashoffset:0;stroke-opacity:1"
       d="m 80.134008,63.231989 -2.233422,-4.53735"
       id="path11082-2"
       sodipodi:nodetypes="cc" />
  </g>
</svg>
