<?xml version="1.0" encoding="UTF-8" standalone="no"?>
<!-- Created with Inkscape (http://www.inkscape.org/) -->

<svg
   width="256"
   height="256"
   viewBox="0 0 67.733333 67.733333"
   version="1.1"
   id="svg5"
   inkscape:version="1.2.2 (b0a8486541, 2022-12-01)"
   sodipodi:docname="potatoro_icon.svg"
   inkscape:export-filename="../../potatoro_icon.png"
   inkscape:export-xdpi="96"
   inkscape:export-ydpi="96"
   xmlns:inkscape="http://www.inkscape.org/namespaces/inkscape"
   xmlns:sodipodi="http://sodipodi.sourceforge.net/DTD/sodipodi-0.dtd"
   xmlns="http://www.w3.org/2000/svg"
   xmlns:svg="http://www.w3.org/2000/svg">
  <sodipodi:namedview
     id="namedview7"
     pagecolor="#8d8d8d"
     bordercolor="#000000"
     borderopacity="0.25"
     inkscape:showpageshadow="2"
     inkscape:pageopacity="0"
     inkscape:pagecheckerboard="0"
     inkscape:deskcolor="#d1d1d1"
     inkscape:document-units="px"
     showgrid="false"
     inkscape:zoom="2.0000001"
     inkscape:cx="138.99999"
     inkscape:cy="117.49999"
     inkscape:window-width="1920"
     inkscape:window-height="1048"
     inkscape:window-x="0"
     inkscape:window-y="0"
     inkscape:window-maximized="1"
     inkscape:current-layer="layer1"
     showguides="false" />
  <defs
     id="defs2" />
  <g
     inkscape:label="Layer 1"
     inkscape:groupmode="layer"
     id="layer1">
    <path
       style="fill:#ffffff;fill-opacity:1;stroke:#ffffff;stroke-width:1.60846;stroke-miterlimit:100;stroke-dasharray:none;stroke-dashoffset:0;stroke-opacity:1"
       d="m 32.70956,61.548355 c 0,0 -20.85049,-3.61338 -17.557685,-28.781654 3.292806,-25.1682698 8.370129,-26.873116 14.58509,-26.930696 6.214963,-0.05758 12.511306,4.179339 15.407648,10.077402 2.896336,5.898064 3.441817,7.10252 5.802569,15.034838 0.576496,1.937065 3.607181,15.483534 0.781271,21.493947 -2.825906,6.010431 -9.685737,10.82499 -19.018893,9.106163 z"
       id="path3033"
       sodipodi:nodetypes="csssssc" />
    <path
       style="fill:#ffffff;fill-opacity:1;stroke:#000000;stroke-width:1.69893;stroke-miterlimit:100;stroke-dasharray:none;stroke-dashoffset:0;stroke-opacity:1"
       d="m 32.632155,62.810306 c 0,0 -22.248007,-3.778085 -18.734499,-30.093576 3.513508,-26.3154872 8.931142,-28.0980432 15.562663,-28.1582479 6.631525,-0.060205 13.349885,4.3698407 16.440355,10.5367489 3.090465,6.16691 3.672508,7.426267 6.191491,15.720155 0.615135,2.02536 3.848954,16.189303 0.833636,22.473681 -3.015315,6.284398 -10.33493,11.318414 -20.293646,9.521239 z"
       id="path3033-3"
       sodipodi:nodetypes="csssssc" />
    <circle
       style="fill:#000000;fill-opacity:1;stroke:#000000;stroke-width:0.670935;stroke-miterlimit:100;stroke-dasharray:none;stroke-dashoffset:0;stroke-opacity:1"
       id="path6868"
       cy="-5.9030247"
       cx="-9.7520285"
       r="3.6332824" />
    <circle
       style="fill:none;fill-opacity:1;stroke:#ffffff;stroke-width:0.258758;stroke-miterlimit:100;stroke-dasharray:none;stroke-dashoffset:0;stroke-opacity:1"
       id="path8163"
       cx="-9.7520285"
       cy="-5.9030247"
       r="3.0456207" />
    <circle
       style="fill:none;fill-opacity:1;stroke:#ffffff;stroke-width:0.215635;stroke-miterlimit:100;stroke-dasharray:0.215635, 0.862542;stroke-dashoffset:0;stroke-opacity:1"
       id="path8163-6"
       cx="-9.7520285"
       cy="-5.9030242"
       r="2.5380175" />
    <ellipse
       style="fill:#000000;fill-opacity:1;stroke:#000000;stroke-width:1.34225;stroke-miterlimit:100;stroke-dasharray:none;stroke-dashoffset:0;stroke-opacity:1"
       id="path6868-7"
       cy="30.66975"
       cx="24.089802"
       rx="7.2694054"
       ry="7.2678814" />
    <ellipse
       style="fill:none;fill-opacity:1;stroke:#ffffff;stroke-width:0.517662;stroke-miterlimit:100;stroke-dasharray:none;stroke-dashoffset:0;stroke-opacity:1"
       id="path8163-5"
       cx="24.089802"
       cy="30.66975"
       rx="6.0936217"
       ry="6.0923448" />
    <ellipse
       style="fill:none;fill-opacity:1;stroke:#ffffff;stroke-width:0.431394;stroke-miterlimit:100;stroke-dasharray:0.431394, 1.72557;stroke-dashoffset:0;stroke-opacity:1"
       id="path8163-6-3"
       cx="24.089802"
       cy="30.66975"
       rx="5.0780187"
       ry="5.0769544" />
    <ellipse
       style="fill:#000000;fill-opacity:1;stroke:#000000;stroke-width:1.34225;stroke-miterlimit:100;stroke-dasharray:none;stroke-dashoffset:0;stroke-opacity:1"
       id="path6868-5"
       cy="33.492146"
       cx="42.082375"
       rx="7.2694054"
       ry="7.2678814" />
    <ellipse
       style="fill:none;fill-opacity:1;stroke:#ffffff;stroke-width:0.517662;stroke-miterlimit:100;stroke-dasharray:none;stroke-dashoffset:0;stroke-opacity:1"
       id="path8163-62"
       cx="42.082375"
       cy="33.492146"
       rx="6.0936217"
       ry="6.0923448" />
    <ellipse
       style="fill:none;fill-opacity:1;stroke:#ffffff;stroke-width:0.431394;stroke-miterlimit:100;stroke-dasharray:0.431394, 1.72557;stroke-dashoffset:0;stroke-opacity:1"
       id="path8163-6-9"
       cx="42.082375"
       cy="33.492146"
       rx="5.0780187"
       ry="5.0769544" />
    <path
       style="fill:#000000;fill-opacity:1;stroke:#000000;stroke-width:0.215635;stroke-miterlimit:100;stroke-dasharray:none;stroke-dashoffset:0;stroke-opacity:1"
       d="m -15.892262,5.5786003 c -1.57935,-1.06039 -2.972765,-3.038175 -2.862227,-4.93726798 0.03007,-0.51655197 0.438545,-1.07887997 0.929072,-1.24354097 2.162665,-0.72596695 4.314041,2.20752595 6.574563,1.90063695 2.861835,-0.38852398 4.100899,-1.31415695 5.544469,-0.158911 0.820743,0.656816 1.071822,2.154688 0.602807,3.09546 -0.749337,1.503055 -2.870648,1.942874 -4.5291678,2.207436 -2.0799822,0.331793 -4.5108222,0.310275 -6.2595162,-0.863813 z"
       id="path10444"
       sodipodi:nodetypes="aaasaaaa" />
    <path
       style="fill:none;fill-opacity:1;stroke:#ffffff;stroke-width:0.186392;stroke-miterlimit:100;stroke-dasharray:none;stroke-dashoffset:0;stroke-opacity:1"
       d="m -15.512511,5.1163928 c -1.432289,-0.8736399 -2.695956,-2.5031081 -2.59571,-4.0677431 0.02727,-0.42557968 0.397709,-0.88887358 0.842561,-1.02453538 1.961288,-0.59811359 3.912338,1.81874858 5.962371,1.56590718 2.595355,-0.3200992 3.719044,-1.08271478 5.028195,-0.1309245 0.74432,0.5411412 0.972019,1.7752161 0.546677,2.5503044 -0.679563,1.2383451 -2.603348,1.6007055 -4.1074344,1.8186743 -1.8863036,0.2733594 -4.0907956,0.2556311 -5.6766596,-0.7116829 z"
       id="path10444-0"
       sodipodi:nodetypes="aaasaaaa" />
    <path
       style="fill:none;fill-opacity:1;stroke:#ffffff;stroke-width:0.162719;stroke-miterlimit:100;stroke-dasharray:0.162719, 0.650875;stroke-dashoffset:0;stroke-opacity:1"
       d="m -15.208806,4.8803282 c -1.314693,-0.724309 -2.47461,-2.0752528 -2.382595,-3.3724453 0.02503,-0.3528355 0.365057,-0.73693878 0.773385,-0.84941198 1.80026,-0.49587821 3.591124,1.50787058 5.472843,1.29824728 2.3822685,-0.2653848 3.413699,-0.8976467 4.615366,-0.1085456 0.683209,0.4486442 0.892213,1.471779 0.501791,2.1143818 -0.623768,1.0266752 -2.389604,1.3270976 -3.7702003,1.5078091 -1.7314327,0.226634 -3.7549297,0.2119361 -5.2105897,-0.5900353 z"
       id="path10444-0-9"
       sodipodi:nodetypes="aaasaaaa" />
    <path
       style="fill:none;fill-opacity:1;stroke:#ffffff;stroke-width:0.32553;stroke-miterlimit:100;stroke-dasharray:none;stroke-dashoffset:0;stroke-opacity:1"
       d="m 24.077445,30.933489 3.38654,-3.177664"
       id="path11080"
       sodipodi:nodetypes="cc" />
    <path
       style="fill:none;fill-opacity:1;stroke:#ffffff;stroke-width:0.32553;stroke-miterlimit:100;stroke-dasharray:none;stroke-dashoffset:0;stroke-opacity:1"
       d="M 24.240285,30.899437 21.836514,29.921275"
       id="path11082"
       sodipodi:nodetypes="cc" />
    <path
       style="fill:none;fill-opacity:1;stroke:#ffffff;stroke-width:0.32553;stroke-miterlimit:100;stroke-dasharray:none;stroke-dashoffset:0;stroke-opacity:1"
       d="m 42.168709,33.628744 -0.815135,4.196543"
       id="path11080-6"
       sodipodi:nodetypes="cc" />
    <path
       style="fill:none;fill-opacity:1;stroke:#ffffff;stroke-width:0.32553;stroke-miterlimit:100;stroke-dasharray:none;stroke-dashoffset:0;stroke-opacity:1"
       d="m 42.184902,33.732652 -1.116877,-2.26884"
       id="path11082-2"
       sodipodi:nodetypes="cc" />
  </g>
</svg>
